<svg xmlns="http://www.w3.org/2000/svg" xmlns:xlink="http://www.w3.org/1999/xlink" width="248.446" height="46.809" viewBox="0 0 248.446 46.809">
  <defs>
    <clipPath id="clip-path">
      <rect id="Rectangle_198" data-name="Rectangle 198" width="248.446" height="46.809" fill="none"/>
    </clipPath>
  </defs>
  <g id="projects-logo-4" transform="translate(0 0)" opacity="0.746">
    <path id="Path_130" data-name="Path 130" d="M141.109,19.521v1.322h-5.841V38.478h-1.654V20.843h-5.841V19.521Z" transform="translate(-36.624 -5.596)" fill="#eff9fe"/>
    <path id="Path_131" data-name="Path 131" d="M153.33,19.521v8.321h10.387V19.521h1.653V38.478h-1.653V29.164H153.33v9.314h-1.653V19.521Z" transform="translate(-43.476 -5.596)" fill="#eff9fe"/>
    <path id="Path_132" data-name="Path 132" d="M188.929,19.521v1.322h-8.376v7h7.164v1.322h-7.164v7.991h8.789v1.323H178.9V19.521Z" transform="translate(-51.279 -5.596)" fill="#eff9fe"/>
    <g id="Group_133" data-name="Group 133" transform="translate(0 0)">
      <g id="Group_132" data-name="Group 132" clip-path="url(#clip-path)">
        <path id="Path_133" data-name="Path 133" d="M215.91,19.521a7.93,7.93,0,0,1,4.078.716,4.124,4.124,0,0,1,2.122,3.913c0,3.829-3.141,4.244-3.141,4.244s4.27.386,4.27,4.712a4.979,4.979,0,0,1-2.149,4.271,8.081,8.081,0,0,1-4.711,1.1h-5.235V19.521ZM212.8,27.842h3.168a5.437,5.437,0,0,0,2.811-.5,3.147,3.147,0,0,0,1.6-3.03,3.208,3.208,0,0,0-1.515-3,6.084,6.084,0,0,0-2.976-.5H212.8Zm0,9.34h3.582a5.565,5.565,0,0,0,3.582-.881,3.882,3.882,0,0,0,1.515-3.169,3.5,3.5,0,0,0-1.984-3.279,7.221,7.221,0,0,0-3.582-.689H212.8Z" transform="translate(-60.521 -5.595)" fill="#eff9fe"/>
        <path id="Path_134" data-name="Path 134" d="M244.458,19.521v1.322h-8.376v7h7.164v1.322h-7.164v7.991h8.789v1.323H234.429V19.521Z" transform="translate(-67.195 -5.595)" fill="#eff9fe"/>
        <path id="Path_135" data-name="Path 135" d="M265.769,38.478l-1.984-5.758h-7.908l-2.066,5.758h-1.544l7-18.956h1.571l6.695,18.956Zm-9.423-7.08h6.971l-3.389-9.92Z" transform="translate(-72.308 -5.595)" fill="#eff9fe"/>
        <path id="Path_136" data-name="Path 136" d="M289.486,37.9a12.105,12.105,0,0,1-4.133.688c-6.227,0-8.68-4.518-8.68-9.671s2.453-9.671,8.68-9.671a12.094,12.094,0,0,1,4.133.689v1.405h-.193a11.126,11.126,0,0,0-4.023-.8c-4.739,0-6.833,3.692-6.833,8.266,0,4.63,2.122,8.488,6.888,8.488a10.82,10.82,0,0,0,3.968-.8h.193Z" transform="translate(-79.304 -5.517)" fill="#eff9fe"/>
        <path id="Path_137" data-name="Path 137" d="M307.062,38.658c-5.235,0-8.183-3.443-8.183-9.7,0-6.228,2.948-9.865,8.321-9.865,5.235,0,8.21,3.445,8.21,9.671,0,6.255-2.975,9.892-8.349,9.892m6.585-9.782c0-5.675-2.4-8.486-6.5-8.486s-6.5,2.811-6.5,8.486,2.4,8.488,6.5,8.488,6.5-2.811,6.5-8.488" transform="translate(-85.669 -5.473)" fill="#eff9fe"/>
        <path id="Path_138" data-name="Path 138" d="M330.271,19.521,341.1,35.833V19.521h1.515V38.478h-1.6L330.078,22.055V38.478h-1.542V19.521Z" transform="translate(-94.169 -5.595)" fill="#eff9fe"/>
        <path id="Path_139" data-name="Path 139" d="M49.45,30.729a5.149,5.149,0,0,1-5.171,5.17,4.986,4.986,0,0,1-3.591-1.508,5.115,5.115,0,0,1,0-7.254,4.923,4.923,0,0,1,3.591-1.58,5.157,5.157,0,0,1,3.663,1.508A5.42,5.42,0,0,1,49.45,30.729Z" transform="translate(-11.23 -7.325)" fill="none" stroke="#eff9fe" stroke-miterlimit="10" stroke-width="2.047"/>
        <path id="Path_140" data-name="Path 140" d="M62.024,17.131a15.737,15.737,0,0,1,0,22.38" transform="translate(-17.778 -4.91)" fill="none" stroke="#eff9fe" stroke-miterlimit="10" stroke-width="2.047"/>
        <path id="Path_141" data-name="Path 141" d="M28.8,39.568a15.946,15.946,0,0,1,0-22.438" transform="translate(-6.932 -4.91)" fill="none" stroke="#eff9fe" stroke-miterlimit="10" stroke-width="2.047"/>
        <path id="Path_142" data-name="Path 142" d="M19.208,43.161a24.538,24.538,0,0,1,0-34.618" transform="translate(-3.458 -2.448)" fill="none" stroke="#eff9fe" stroke-miterlimit="10" stroke-width="2.047"/>
        <path id="Path_143" data-name="Path 143" d="M70.607,8.543a24.417,24.417,0,0,1,0,34.618" transform="translate(-20.238 -2.448)" fill="none" stroke="#eff9fe" stroke-miterlimit="10" stroke-width="2.047"/>
        <path id="Path_144" data-name="Path 144" d="M10.514,46.52a32.286,32.286,0,0,1,0-45.728" transform="translate(-0.293 -0.227)" fill="none" stroke="#eff9fe" stroke-miterlimit="10" stroke-width="2.047"/>
        <path id="Path_145" data-name="Path 145" d="M78.429.72a32.348,32.348,0,0,1,0,45.779" transform="translate(-22.48 -0.206)" fill="none" stroke="#eff9fe" stroke-miterlimit="10" stroke-width="2.047"/>
      </g>
    </g>
  </g>
</svg>
