<svg xmlns="http://www.w3.org/2000/svg" width="175.752" height="57.758" viewBox="0 0 175.752 57.758">
  <g id="projects-logo-3" transform="translate(-38.3 -49.6)" opacity="0.746">
    <g id="Group_129" data-name="Group 129" transform="translate(38.3 49.6)">
      <path id="Path_121" data-name="Path 121" d="M55.1,100.582,74.807,89.3V77.9L55.1,89.055Z" transform="translate(-34.278 -42.824)" fill="#fff"/>
      <g id="Group_128" data-name="Group 128">
        <path id="Path_122" data-name="Path 122" d="M58.579,72.034l5.33-2.975,14.5-8.18L58.331,49.6,38.5,60.755Z" transform="translate(-38.252 -49.6)" fill="#fff"/>
        <path id="Path_123" data-name="Path 123" d="M74.807,70.8V59.4L55.1,70.555v11.4Z" transform="translate(-34.278 -47.254)" fill="#fff"/>
        <path id="Path_124" data-name="Path 124" d="M57.511,93.113l-9.048-5.082h0V76.5l9.668,5.577V70.555L38.3,59.4V93.856l19.831,11.155V93.484Z" transform="translate(-38.3 -47.254)" fill="#fff"/>
      </g>
    </g>
    <g id="Group_131" data-name="Group 131" transform="translate(89.241 59.02)">
      <g id="Group_130" data-name="Group 130" transform="translate(0)">
        <path id="Path_125" data-name="Path 125" d="M104.932,94.259a20.333,20.333,0,0,1-8.924,1.735C86.465,95.994,79.4,89.3,79.4,76.907,79.4,65.132,86.589,57.2,97.124,57.2a17.915,17.915,0,0,1,8.056,1.611l-1.115,3.966a14.529,14.529,0,0,0-6.817-1.611c-7.932,0-13.262,5.7-13.262,15.493C83.986,85.831,88.7,91.78,97,91.78a15.41,15.41,0,0,0,7.189-1.611Z" transform="translate(-79.4 -57.2)" fill="#fff"/>
        <path id="Path_126" data-name="Path 126" d="M104.5,57.7h4.462V91.289h14.5v4.09H104.624V57.7Z" transform="translate(-73.39 -57.08)" fill="#fff"/>
        <path id="Path_127" data-name="Path 127" d="M141.076,77.779H127.938V91.413h14.749V95.5H123.6V57.7h18.344v4.09H128.062v11.9H141.2v4.09Z" transform="translate(-68.817 -57.08)" fill="#fff"/>
        <path id="Path_128" data-name="Path 128" d="M151.659,95.379V79.39L141,57.7h5.082l4.71,10.411c1.239,2.851,2.355,5.206,3.346,7.808h.124a80.448,80.448,0,0,1,3.47-7.808L162.566,57.7h4.958L156.245,79.39V95.379Z" transform="translate(-64.651 -57.08)" fill="#fff"/>
        <path id="Path_129" data-name="Path 129" d="M164.715,89.549a13.88,13.88,0,0,0,7.808,2.355c4.462,0,7.065-2.6,7.065-6.321,0-3.47-1.859-5.577-6.321-7.437-5.577-2.107-8.924-5.33-8.924-10.659,0-5.825,4.338-10.287,10.907-10.287a14.826,14.826,0,0,1,7.437,1.735L181.448,62.9a11.691,11.691,0,0,0-6.321-1.735c-4.586,0-6.321,3.1-6.321,5.7,0,3.47,2.107,5.206,6.693,7.189,5.7,2.479,8.552,5.577,8.552,11.031,0,5.7-3.842,10.907-11.775,10.907a16.324,16.324,0,0,1-8.676-2.479Z" transform="translate(-59.24 -57.2)" fill="#fff"/>
      </g>
    </g>
  </g>
</svg>
