<svg xmlns="http://www.w3.org/2000/svg" width="144.101" height="70.595" viewBox="0 0 144.101 70.595">
  <g id="projects-logo-5" transform="translate(3591 -19011.359)" opacity="0.746">
    <path id="Subtraction_1" data-name="Subtraction 1" d="M31.573,38.6H4.307C1.932,38.6,0,36.348,0,33.58V11.14A5.66,5.66,0,0,1,.627,8.533,4.6,4.6,0,0,1,2.3,6.7l1.166-.712,6.12-2.526L15.932.583a3.748,3.748,0,0,1,4.015,0L33.58,6.671a5.2,5.2,0,0,1,2.3,4.469V33.58a5.441,5.441,0,0,1-1.255,3.542A3.994,3.994,0,0,1,31.573,38.6ZM17.778,7.351A13.892,13.892,0,1,0,31.67,21.243a13.724,13.724,0,0,0-1.1-5.395,14.023,14.023,0,0,0-7.4-7.4A13.724,13.724,0,0,0,17.778,7.351Zm0,25.291a11.4,11.4,0,1,1,11.4-11.4A11.411,11.411,0,0,1,17.778,32.641ZM16.9,12.985a6.724,6.724,0,0,0-5.311,2.655,7.982,7.982,0,0,0-1.283,2.286,7.606,7.606,0,0,0-.433,2.207,7.339,7.339,0,0,0,.615,3.376c.275.55.47.745.745.745l.259-.032.1-.162a.747.747,0,0,0,.1-.519c0-.051,0-.1,0-.161a6.711,6.711,0,0,1,1.846-5.537,8.539,8.539,0,0,1,4.394-2.175l.107-.027c1-.234,1.622-.4,1.749-.842a.931.931,0,0,0,.032-.777A3.6,3.6,0,0,0,16.9,12.985Z" transform="translate(-3591 19011.359)" fill="#fff"/>
    <path id="Path_149" data-name="Path 149" d="M128.4,23.4h6.023V50.828H128.4Z" transform="translate(-3677.821 18995.537)" fill="#fff"/>
    <path id="Path_150" data-name="Path 150" d="M161.5,23.4h6.509l7.221,11.593L182.451,23.4h6.509V50.828h-5.991V32.92l-7.707,11.722H175.1L167.458,33.05V50.828h-5.926V23.4Z" transform="translate(-3700.202 18995.537)" fill="#fff"/>
    <path id="Path_151" data-name="Path 151" d="M260.5,23.7h6.509l7.221,11.593L281.451,23.7h6.509V51.128h-5.991V33.22l-7.707,11.722H274.1L266.458,33.35V51.128h-5.926V23.7Z" transform="translate(-3767.144 18995.334)" fill="#fff"/>
    <path id="Path_152" data-name="Path 152" d="M355,36.148v-.065c0-7.8,6.153-14.183,14.6-14.183s14.54,6.315,14.54,14.119v.065c0,7.8-6.153,14.183-14.6,14.183S355,43.952,355,36.148Zm22.862,0v-.065a8.325,8.325,0,0,0-8.322-8.614,8.211,8.211,0,0,0-8.225,8.549v.065a8.325,8.325,0,0,0,8.322,8.614C374.527,44.7,377.862,40.876,377.862,36.148Z" transform="translate(-3831.043 18996.551)" fill="#fff"/>
    <path id="Path_153" data-name="Path 153" d="M28.422,137.27H20.1V131.7H42.832v5.57H34.478v21.858H28.422Z" transform="translate(-3604.591 18922.307)" fill="#fff"/>
    <path id="Path_154" data-name="Path 154" d="M97.1,144.648v-.065c0-7.8,6.153-14.183,14.6-14.183s14.54,6.315,14.54,14.119v.065c0,7.8-6.153,14.183-14.6,14.183S97.1,152.42,97.1,144.648Zm22.862,0v-.065a8.325,8.325,0,0,0-8.322-8.614,8.211,8.211,0,0,0-8.225,8.549v.065a8.325,8.325,0,0,0,8.322,8.614C116.627,153.2,119.962,149.344,119.962,144.648Z" transform="translate(-3656.657 18923.188)" fill="#fff"/>
    <path id="Path_155" data-name="Path 155" d="M199,144.648v-.065c0-7.8,6.153-14.183,14.6-14.183s14.54,6.315,14.54,14.119v.065c0,7.8-6.153,14.183-14.6,14.183C205.055,158.734,199,152.42,199,144.648Zm22.83,0v-.065a8.325,8.325,0,0,0-8.322-8.614,8.211,8.211,0,0,0-8.225,8.549v.065A8.325,8.325,0,0,0,213.6,153.2,8.23,8.23,0,0,0,221.83,144.648Z" transform="translate(-3725.559 18923.188)" fill="#fff"/>
    <path id="Path_156" data-name="Path 156" d="M305.532,131.8h6.023v21.955h13.665v5.473H305.5V131.8Z" transform="translate(-3797.572 18922.24)" fill="#fff"/>
    <path id="Path_157" data-name="Path 157" d="M376.7,154.4l3.562-4.274a12.555,12.555,0,0,0,8.193,3.335c2.461,0,3.951-.971,3.951-2.591v-.065c0-1.522-.939-2.3-5.537-3.5-5.537-1.425-9.1-2.947-9.1-8.387v-.065c0-4.987,3.983-8.257,9.585-8.257a15.948,15.948,0,0,1,10.2,3.5l-3.141,4.534a12.86,12.86,0,0,0-7.124-2.688c-2.3,0-3.53,1.069-3.53,2.4v.065c0,1.813,1.166,2.4,5.926,3.594,5.57,1.457,8.711,3.433,8.711,8.225v.065c0,5.44-4.145,8.517-10.071,8.517A17.377,17.377,0,0,1,376.7,154.4Z" transform="translate(-3845.716 18923.051)" fill="#fff"/>
  </g>
</svg>
