<svg xmlns="http://www.w3.org/2000/svg" width="215" height="66" viewBox="0 0 215 66">
  <g id="projects-logo-2" transform="translate(-140.4 -184.198)" opacity="0.746">
    <g id="Group_124" data-name="Group 124" transform="translate(140.4 184.198)">
      <path id="Path_97" data-name="Path 97" d="M178.234,195.141c2.888-.5,5.546-2.85,5.854-5.122h0a2.677,2.677,0,0,0-.693-2.2,3.948,3.948,0,0,0-3.736-.616c-2.619.693-4.814,2.465-5.469,4.467a2.71,2.71,0,0,0,.385,2.465A3.834,3.834,0,0,0,178.234,195.141Z" transform="translate(-161.097 -185.936)" fill="#fff"/>
      <path id="Path_98" data-name="Path 98" d="M213.456,192.479a6.047,6.047,0,0,0,4.583-1.849,3.393,3.393,0,0,0,.886-2.542c-.27-2.234-2.5-3.774-5.623-3.89h0c-3.042-.039-5.314,1.5-5.507,3.736a3.468,3.468,0,0,0,.963,2.542A6.707,6.707,0,0,0,213.456,192.479Z" transform="translate(-181.839 -184.198)" fill="#fff"/>
      <path id="Path_99" data-name="Path 99" d="M249.921,196.446c1.54.27,2.734,0,3.389-.809a2.444,2.444,0,0,0,.27-2.388,8.48,8.48,0,0,0-5.314-4.544h0c-1.5-.424-2.773-.308-3.5.385a2.315,2.315,0,0,0-.616,2.157C244.568,193.48,247.225,195.868,249.921,196.446Z" transform="translate(-204.17 -186.817)" fill="#fff"/>
      <path id="Path_100" data-name="Path 100" d="M145.876,232.187c2.118-.424,4.236-3.273,4.66-6.277.193-1.733-.154-3.158-1-3.89a2.107,2.107,0,0,0-2.234-.308h0c-1.771.732-3.312,3.081-3.928,5.892-.308,1.771-.116,3.158.578,3.928A2.019,2.019,0,0,0,145.876,232.187Z" transform="translate(-142.141 -207.227)" fill="#fff"/>
      <path id="Path_101" data-name="Path 101" d="M173.557,226.992c3.2-.193,5.931-3.158,6.162-6.585a5.294,5.294,0,0,0-1.463-4.044,4.747,4.747,0,0,0-3.928-1.309h0a7,7,0,0,0-5.777,6.239,5.481,5.481,0,0,0,1.194,4.159A4.807,4.807,0,0,0,173.557,226.992Z" transform="translate(-157.69 -203.214)" fill="#fff"/>
      <path id="Path_102" data-name="Path 102" d="M212.8,213h0a6.075,6.075,0,0,0-6.2,5.969,6.336,6.336,0,0,0,6.277,6.431,6.162,6.162,0,0,0,4.544-1.926,6.411,6.411,0,0,0,1.656-4.39A6.344,6.344,0,0,0,212.8,213Z" transform="translate(-181.105 -201.966)" fill="#fff"/>
      <path id="Path_103" data-name="Path 103" d="M252.71,215.923h0a4.357,4.357,0,0,0-3.7,1.117,5.134,5.134,0,0,0-1.425,4.044c.231,3.35,2.888,6.316,5.969,6.585a4.207,4.207,0,0,0,3.5-1.348,5.372,5.372,0,0,0,1.155-4.159A7.03,7.03,0,0,0,252.71,215.923Z" transform="translate(-206.304 -203.738)" fill="#fff"/>
      <path id="Path_104" data-name="Path 104" d="M287.127,229.1c-.616-2.734-1.964-5.006-3.466-5.777h0a1.607,1.607,0,0,0-1.849.116c-.809.616-1.155,2.041-.924,3.851.424,2.927,2.388,5.738,4.236,6.2a1.661,1.661,0,0,0,1.617-.462C287.358,232.3,287.512,230.913,287.127,229.1Z" transform="translate(-226.742 -208.189)" fill="#fff"/>
      <path id="Path_105" data-name="Path 105" d="M143.827,269.079a2.822,2.822,0,0,0,2.272-.886,7.016,7.016,0,0,0,1.81-4.968,7.173,7.173,0,0,0-1.849-4.968,3.029,3.029,0,0,0-2.311-.963h0c-2,.193-3.35,2.58-3.35,5.854C140.477,266.422,141.863,268.81,143.827,269.079Z" transform="translate(-140.4 -229.287)" fill="#fff"/>
      <path id="Path_106" data-name="Path 106" d="M172.223,268.925a5.359,5.359,0,0,0,4.044-1.694,6.926,6.926,0,0,0,1.926-4.929c-.039-3.774-2.7-6.7-6.008-6.7h0c-3.2.154-5.546,2.927-5.584,6.624C166.677,265.921,169.065,268.732,172.223,268.925Z" transform="translate(-156.51 -228.248)" fill="#fff"/>
      <path id="Path_107" data-name="Path 107" d="M146.341,295.918h0a1.879,1.879,0,0,0-1.926.578c-.693.77-.847,2.157-.5,3.813.616,2.7,2.2,5.045,3.928,5.854a2.022,2.022,0,0,0,2.2-.231c.809-.693,1.155-2.041.963-3.736C150.578,299.23,148.421,296.38,146.341,295.918Z" transform="translate(-142.452 -253.078)" fill="#fff"/>
      <path id="Path_108" data-name="Path 108" d="M178.455,310.025a5.262,5.262,0,0,0,1.425-3.928,7,7,0,0,0-6.162-6.508h0a4.723,4.723,0,0,0-3.774,1.463,5.252,5.252,0,0,0-1.194,4.082,7.118,7.118,0,0,0,5.777,6.123A4.624,4.624,0,0,0,178.455,310.025Z" transform="translate(-157.813 -255.374)" fill="#fff"/>
      <path id="Path_109" data-name="Path 109" d="M178.9,336.382h0c-1.656-.231-2.965.077-3.62.963a2.379,2.379,0,0,0-.308,2.234c.693,1.849,2.85,3.543,5.392,4.236,1.617.385,3,.193,3.736-.539a2.393,2.393,0,0,0,.616-2C184.368,339.116,181.711,336.883,178.9,336.382Z" transform="translate(-161.57 -278.009)" fill="#fff"/>
    </g>
    <g id="Group_127" data-name="Group 127" transform="translate(170.515 218.282)">
      <path id="Path_110" data-name="Path 110" d="M218.6,289.529V273.2h3.042v6.354h9.589V273.2h3.081v16.329h-3.081V282.52h-9.589v7.009Z" transform="translate(-218.6 -273.2)" fill="#fff"/>
      <path id="Path_111" data-name="Path 111" d="M275,273.2v13.286h8.742V273.2h3.042v12.477a5.14,5.14,0,0,1-.655,3.042,3.28,3.28,0,0,1-2.58.809h-8.318a3.28,3.28,0,0,1-2.58-.809,4.862,4.862,0,0,1-.655-3.042V273.2Z" transform="translate(-251.435 -273.2)" fill="#fff"/>
      <path id="Path_112" data-name="Path 112" d="M322.487,289.529,314.9,273.2h3.5l5.314,11.823L328.8,273.2h3.042l-7.24,16.329Z" transform="translate(-278.01 -273.2)" fill="#fff"/>
      <path id="Path_113" data-name="Path 113" d="M363.1,289.529V273.2h13.44v2.773h-10.4v3.659h6.085V282.4h-6.085v4.044h10.552v3.042H363.1Z" transform="translate(-307.74 -273.2)" fill="#fff"/>
      <path id="Path_114" data-name="Path 114" d="M408.1,289.529V273.2h11.284a2.987,2.987,0,0,1,2.272.732,3.512,3.512,0,0,1,.693,2.426v3.659a3.512,3.512,0,0,1-.693,2.426,2.993,2.993,0,0,1-2.272.77H411.1v6.354h-3Zm9.936-13.517h-6.893v4.313h6.893a1.517,1.517,0,0,0,1.078-.27,1.412,1.412,0,0,0,.308-1v-1.733a1.412,1.412,0,0,0-.308-1A1.566,1.566,0,0,0,418.036,276.011Z" transform="translate(-335.501 -273.2)" fill="#fff"/>
      <path id="Path_115" data-name="Path 115" d="M452.4,289.529V273.2h3.042v6.354h9.589V273.2h3.081v16.329h-3.081V282.52h-9.589v7.009Z" transform="translate(-362.834 -273.2)" fill="#fff"/>
      <path id="Path_116" data-name="Path 116" d="M499.1,289.529l7.471-16.329h2.965l7.548,16.329h-3.427l-1.579-3.543h-8.4l-1.54,3.543Zm5.892-6.508h5.777l-2.85-6.662Z" transform="translate(-391.651 -273.2)" fill="#fff"/>
      <path id="Path_117" data-name="Path 117" d="M551.7,289.529V273.2h11.284a2.987,2.987,0,0,1,2.272.732,3.512,3.512,0,0,1,.693,2.426v3.851a3.467,3.467,0,0,1-.693,2.388,2.987,2.987,0,0,1-2.272.732h-1.733l6.085,6.162h-4.39l-5.315-6.162H554.7v6.162h-3Zm9.936-13.517h-6.893v4.583h6.893a1.517,1.517,0,0,0,1.078-.27,1.412,1.412,0,0,0,.308-1v-1.964a1.255,1.255,0,0,0-.308-1A1.338,1.338,0,0,0,561.636,276.011Z" transform="translate(-424.093 -273.2)" fill="#fff"/>
      <path id="Path_118" data-name="Path 118" d="M599.9,289.529V273.2h2.465l6.2,9.859,6.085-9.859h2.465v16.329H614.3v-10.09a5.182,5.182,0,0,1,.038-.732c.039-.308.039-.616.077-1-.154.424-.308.77-.424,1.04a3.358,3.358,0,0,1-.347.655l-4.968,8.164h-.655l-4.968-8.164a6.593,6.593,0,0,1-.462-.886,6.945,6.945,0,0,1-.308-.809,8.061,8.061,0,0,1,.039.924c0,.27.039.539.039.809v10.09Z" transform="translate(-453.95 -273.2)" fill="#fff"/>
      <path id="Path_119" data-name="Path 119" d="M649.7,289.529l7.471-16.329h2.965l7.548,16.329h-3.427l-1.579-3.543h-8.357l-1.54,3.543Zm5.892-6.508h5.777l-2.85-6.662Z" transform="translate(-484.572 -273.2)" fill="#fff"/>
      <g id="Group_126" data-name="Group 126" transform="translate(180.802 0.077)">
        <g id="Group_125" data-name="Group 125">
          <path id="Path_120" data-name="Path 120" d="M692.441,273.4a2.072,2.072,0,0,1,2.041,2.118,2.048,2.048,0,0,1-2.041,2.118,2.072,2.072,0,0,1-2.041-2.118,2.048,2.048,0,0,1,2.041-2.118Zm0,.424a1.633,1.633,0,0,0-1.54,1.694,1.53,1.53,0,1,0,3.042,0,1.554,1.554,0,0,0-1.5-1.694Zm-.308,2.773h-.462v-2.118a3.654,3.654,0,0,1,.77-.077,1.3,1.3,0,0,1,.693.154.525.525,0,0,1,.193.462.533.533,0,0,1-.424.5v.039a.564.564,0,0,1,.347.5,2.618,2.618,0,0,0,.154.5h-.5c-.077-.077-.077-.27-.154-.5-.038-.231-.154-.308-.424-.308h-.231v.847Zm0-1.155h.231c.27,0,.462-.077.462-.308,0-.193-.154-.308-.424-.308a.571.571,0,0,0-.27.039Z" transform="translate(-690.4 -273.4)" fill="#fff"/>
        </g>
      </g>
    </g>
  </g>
</svg>
