<svg xmlns="http://www.w3.org/2000/svg" width="20" height="15" viewBox="0 0 20 15">
  <path id="article-share-envelope" d="M8.125-15H-8.125A1.875,1.875,0,0,0-10-13.125v11.25A1.875,1.875,0,0,0-8.125,0H8.125A1.875,1.875,0,0,0,10-1.875v-11.25A1.875,1.875,0,0,0,8.125-15Zm0,1.875v1.594c-.876.713-2.272,1.822-5.257,4.16C2.21-6.854.907-5.611,0-5.625c-.907.015-2.21-1.229-2.868-1.746-2.985-2.337-4.381-3.446-5.257-4.16v-1.594ZM-8.125-1.875v-7.25c.9.713,2.164,1.713,4.1,3.228C-3.172-5.225-1.677-3.741,0-3.75,1.669-3.741,3.145-5.2,4.025-5.9c1.935-1.515,3.2-2.516,4.1-3.229v7.25Z" transform="translate(10 15)" fill="#fff"/>
</svg>
