<svg xmlns="http://www.w3.org/2000/svg" width="17.5" height="17.5" viewBox="0 0 17.5 17.5">
  <path id="article-share-whatsapp" d="M6.129-13.707A8.607,8.607,0,0,0,0-16.25,8.682,8.682,0,0,0-8.676-7.578,8.681,8.681,0,0,0-7.52-3.242L-8.75,1.25l4.6-1.207A8.645,8.645,0,0,0-.008,1.1H0A8.755,8.755,0,0,0,8.75-7.574,8.706,8.706,0,0,0,6.129-13.707ZM0-.363a7.2,7.2,0,0,1-3.672-1l-.262-.156-2.727.715.727-2.66-.172-.273a7.184,7.184,0,0,1-1.1-3.836A7.218,7.218,0,0,1,0-14.785a7.144,7.144,0,0,1,5.094,2.113,7.236,7.236,0,0,1,2.191,5.1A7.288,7.288,0,0,1,0-.363Zm3.953-5.4c-.215-.109-1.281-.633-1.48-.7s-.344-.109-.488.109-.559.7-.688.852-.254.164-.469.055A5.9,5.9,0,0,1-2.125-8.027c-.223-.383.223-.355.637-1.184a.4.4,0,0,0-.02-.379C-1.562-9.7-2-10.766-2.176-11.2s-.355-.363-.488-.371-.27-.008-.414-.008a.8.8,0,0,0-.578.27A2.435,2.435,0,0,0-4.414-9.5a4.245,4.245,0,0,0,.883,2.242,9.683,9.683,0,0,0,3.7,3.273,4.24,4.24,0,0,0,2.6.543A2.22,2.22,0,0,0,4.234-4.473,1.812,1.812,0,0,0,4.359-5.5C4.309-5.6,4.164-5.656,3.949-5.762Z" transform="translate(8.75 16.25)" fill="#fff"/>
</svg>
