<svg id="Codelines" xmlns="http://www.w3.org/2000/svg" xmlns:xlink="http://www.w3.org/1999/xlink" width="240" height="38.358" viewBox="0 0 240 38.358">
  <defs>
    <linearGradient id="linear-gradient" x1="0.497" y1="-0.237" x2="0.494" y2="0.98" gradientUnits="objectBoundingBox">
      <stop offset="0" stop-color="#d07a24"/>
      <stop offset="1" stop-color="#e9ae41"/>
    </linearGradient>
    <clipPath id="clip-path">
      <rect id="Rectangle_22" data-name="Rectangle 22" width="240" height="38.358" fill="none"/>
    </clipPath>
    <clipPath id="clip-path-2">
      <path id="Path_18" data-name="Path 18" d="M44.956,17.309l-7.6,7.605a1.59,1.59,0,0,0-.466,1.125v9.133a1.591,1.591,0,0,1-1.591,1.591H26.16a1.592,1.592,0,0,0-1.125.466l-7.6,7.6a1.591,1.591,0,0,0,1.125,2.717H46.081a1.592,1.592,0,0,0,1.591-1.591V18.435a1.591,1.591,0,0,0-1.6-1.595,1.559,1.559,0,0,0-1.114.469" transform="translate(-16.961 -16.84)" fill="url(#linear-gradient)"/>
    </clipPath>
    <clipPath id="clip-path-3">
      <path id="Path_19" data-name="Path 19" d="M10.788,0h-9.2A1.592,1.592,0,0,0,0,1.591V29.116a1.591,1.591,0,0,0,2.717,1.126l7.6-7.605a1.591,1.591,0,0,0,.466-1.125V12.378a1.591,1.591,0,0,1,1.591-1.591h9.133a1.59,1.59,0,0,0,1.125-.466l7.605-7.605A1.592,1.592,0,0,0,29.117,0Z" transform="translate(0 0.001)" fill="url(#linear-gradient)"/>
    </clipPath>
  </defs>
  <g id="Group_10" data-name="Group 10" transform="translate(0 0.001)">
    <g id="Group_9" data-name="Group 9" transform="translate(0 0)" clip-path="url(#clip-path)">
      <path id="Path_9" data-name="Path 9" d="M118.464,28.542a4.985,4.985,0,0,0-4.232,2.04,8.268,8.268,0,0,0-1.527,5.091,8.031,8.031,0,0,0,1.523,5.068,5.052,5.052,0,0,0,4.23,1.97,10.229,10.229,0,0,0,3.026-.417,26.008,26.008,0,0,0,3.075-1.2l1.819,4.625a10.9,10.9,0,0,1-4.06,1.868,16.994,16.994,0,0,1-3.912.589q-5.806,0-9.051-3.4a12.62,12.62,0,0,1-3.243-9.1,12.8,12.8,0,0,1,3.251-9.149q3.248-3.442,9.053-3.44a15.249,15.249,0,0,1,3.862.641,13.315,13.315,0,0,1,4.107,1.871l-1.822,4.576a26.172,26.172,0,0,0-3.074-1.207,10.254,10.254,0,0,0-3.025-.419" transform="translate(-57.931 -12.601)" fill="#fff"/>
      <path id="Path_10" data-name="Path 10" d="M166.435,48.19q-5.658,0-8.83-3.422t-3.17-9.177a12.456,12.456,0,0,1,3.325-9.1q3.322-3.393,9.078-3.391,5.952,0,9.223,3.522a13,13,0,0,1,3.268,9.226,11.776,11.776,0,0,1-3.546,9.027,13.112,13.112,0,0,1-9.349,3.316m6.3-12.346a8.538,8.538,0,0,0-1.5-5.338,5.064,5.064,0,0,0-4.255-1.945,5.636,5.636,0,0,0-4.379,1.72q-1.576,1.722-1.577,5.264a8.911,8.911,0,0,0,1.351,5.362,4.839,4.839,0,0,0,4.156,1.823,6.206,6.206,0,0,0,4.477-1.646q1.722-1.648,1.724-5.239" transform="translate(-84.313 -12.611)" fill="#fff"/>
      <path id="Path_11" data-name="Path 11" d="M287.167,48.239q-6.2,0-9.765-3.4a11.971,11.971,0,0,1-3.563-9.1,12.85,12.85,0,0,1,3.226-9.149,11.444,11.444,0,0,1,8.783-3.441q5.609,0,8.239,3.718a14.8,14.8,0,0,1,2.629,8.783v1.968l-16.088-.006a6.136,6.136,0,0,0,2.163,3.765,6.945,6.945,0,0,0,4.526,1.4,9.553,9.553,0,0,0,2.928-.417,27.893,27.893,0,0,0,3.025-1.2l1.868,4.626a10.891,10.891,0,0,1-4.059,1.868,17,17,0,0,1-3.912.589m3.5-14.905a6.388,6.388,0,0,0-1.769-3.568,4.592,4.592,0,0,0-3.2-1.157,4.724,4.724,0,0,0-3.3,1.2,5.923,5.923,0,0,0-1.723,3.517Z" transform="translate(-149.5 -12.637)" fill="#fff"/>
      <path id="Path_12" data-name="Path 12" d="M358.012,1.285a3.559,3.559,0,0,1,2.582,1.034,3.434,3.434,0,0,1,1.056,2.559,3.431,3.431,0,0,1-1.058,2.558,3.558,3.558,0,0,1-2.583,1.032A3.416,3.416,0,0,1,355.5,7.434a3.478,3.478,0,0,1-1.033-2.559A3.476,3.476,0,0,1,355.5,2.317a3.416,3.416,0,0,1,2.51-1.032m3.193,10.579-.01,23.861-6.4,0,.009-23.861Z" transform="translate(-193.519 -0.702)" fill="#fff"/>
      <path id="Path_13" data-name="Path 13" d="M383.876,26.03a11.447,11.447,0,0,1,4.06-2.556,12.339,12.339,0,0,1,4.354-.933q4.871,0,6.911,2.856a11.7,11.7,0,0,1,2.039,6.987l-.006,14.956-6.4,0,.005-14.661a5.026,5.026,0,0,0-1.081-3.469A4.013,4.013,0,0,0,390.615,28a6.7,6.7,0,0,0-2.878.712,15.5,15.5,0,0,0-2.731,1.647L385,47.333l-6.4,0,.009-23.861h3.345Z" transform="translate(-206.695 -12.306)" fill="#fff"/>
      <path id="Path_14" data-name="Path 14" d="M448.282,48.3q-6.2,0-9.765-3.4a11.973,11.973,0,0,1-3.563-9.1,12.853,12.853,0,0,1,3.227-9.149,11.444,11.444,0,0,1,8.783-3.441q5.609,0,8.239,3.718a14.8,14.8,0,0,1,2.629,8.783V37.68l-16.088-.006a6.133,6.133,0,0,0,2.163,3.765,6.947,6.947,0,0,0,4.526,1.4,9.549,9.549,0,0,0,2.927-.417,27.857,27.857,0,0,0,3.026-1.2l1.868,4.626a10.893,10.893,0,0,1-4.059,1.868,17,17,0,0,1-3.912.589m3.5-14.905a6.388,6.388,0,0,0-1.77-3.568,4.592,4.592,0,0,0-3.2-1.157,4.721,4.721,0,0,0-3.3,1.2,5.921,5.921,0,0,0-1.724,3.517Z" transform="translate(-237.46 -12.672)" fill="#fff"/>
      <path id="Path_15" data-name="Path 15" d="M504.025,30.318a22.694,22.694,0,0,0-3.2-1.207,11.518,11.518,0,0,0-3.148-.42,3.267,3.267,0,0,0-1.894.467,1.505,1.505,0,0,0-.665,1.3q0,.591.811,1.132a12.534,12.534,0,0,0,2.632,1.181,20.835,20.835,0,0,1,5.558,3.028,6.052,6.052,0,0,1,2.557,5.044,6.577,6.577,0,0,1-2.536,5.509q-2.536,1.968-7.405,1.965a18.852,18.852,0,0,1-4.058-.592,10.9,10.9,0,0,1-4.206-1.871l1.921-4.624a20.412,20.412,0,0,0,3.32,1.207,11.65,11.65,0,0,0,2.927.42,5.936,5.936,0,0,0,2.706-.491,1.457,1.457,0,0,0,.936-1.279,2.294,2.294,0,0,0-.934-1.772,8.829,8.829,0,0,0-2.951-1.427,20.932,20.932,0,0,1-5.386-2.683,5.433,5.433,0,0,1-2.532-4.7,6.382,6.382,0,0,1,2.511-5.337,10.816,10.816,0,0,1,6.79-1.941,16.107,16.107,0,0,1,3.935.641,13.843,13.843,0,0,1,4.23,1.871Z" transform="translate(-266.677 -12.683)" fill="#fff"/>
      <path id="Path_16" data-name="Path 16" d="M231.3,7.042l0,5.261a14.083,14.083,0,0,0-3.149-1.3,11.288,11.288,0,0,0-3-.469,9.952,9.952,0,0,0-8.144,3.638,13.833,13.833,0,0,0-2.98,9.051,14.4,14.4,0,0,0,2.8,9.053,9.516,9.516,0,0,0,8.017,3.643,12.173,12.173,0,0,0,3.961-.761,11.838,11.838,0,0,0,3.814-2.139l1.77,2.313h3.346L237.751.6h0ZM231.3,28.735a14.907,14.907,0,0,1-2.338,1.2,6.273,6.273,0,0,1-2.386.515q-3.592,0-4.772-2.216a10.5,10.5,0,0,1-1.179-5.019,9.954,9.954,0,0,1,1.306-4.87q1.3-2.361,4.65-2.36a6.548,6.548,0,0,1,2.387.493,11.778,11.778,0,0,1,2.336,1.231Z" transform="translate(-116.847 -0.325)" fill="#fff"/>
      <path id="Path_17" data-name="Path 17" d="M331.484,6.976l-.011,28.383,6.346,0L337.834.628h0Z" transform="translate(-180.965 -0.343)" fill="#fff"/>
    </g>
  </g>
  <g id="Group_16" data-name="Group 16" style="isolation: isolate">
    <g id="Group_12" data-name="Group 12" transform="translate(7.701 7.647)">
      <g id="Group_11" data-name="Group 11" clip-path="url(#clip-path-2)">
        <rect id="Rectangle_23" data-name="Rectangle 23" width="43.807" height="43.81" transform="matrix(0.704, -0.71, 0.71, 0.704, -15.888, 15.479)" fill="url(#linear-gradient)"/>
      </g>
    </g>
    <g id="Group_14" data-name="Group 14">
      <g id="Group_13" data-name="Group 13" clip-path="url(#clip-path-3)">
        <rect id="Rectangle_24" data-name="Rectangle 24" width="44.187" height="44.187" transform="translate(-15.622 15.748) rotate(-45.23)" fill="url(#linear-gradient)"/>
      </g>
    </g>
  </g>
</svg>
